<?xml version="1.0" encoding="utf-8"?>
<!-- Generator: Adobe Illustrator 25.4.1, SVG Export Plug-In . SVG Version: 6.00 Build 0)  -->
<svg version="1.1" id="katman_1" xmlns="http://www.w3.org/2000/svg" xmlns:xlink="http://www.w3.org/1999/xlink" x="0px" y="0px"
	 viewBox="0 0 222.98 197.98" style="enable-background:new 0 0 222.98 197.98;" xml:space="preserve">
<g>
	<path d="M95.05,182.36c-2.25-0.22-4.5-0.45-6.75-0.66c-12.02-1.08-23.83-3.06-34.81-8.43c-4.22-2.07-8.14-4.58-11.08-8.34
		c-0.55-0.71-1.02-1.73-1.01-2.59c0.13-9.81,0.18-19.64,1.91-29.34c1.22-6.86,3.39-13.32,8.31-18.54c3.57-3.79,7.94-6.32,12.69-8.27
		c6.84-2.82,14.03-4.35,21.26-5.75c0.43-0.08,1.08,0.12,1.41,0.43c5.16,4.79,11.41,6.42,18.24,6.35c6.6-0.07,12.62-1.78,17.54-6.46
		c0.29-0.27,0.89-0.4,1.3-0.32c7.49,1.46,14.95,3.04,22.01,6.06c6.64,2.84,12.28,6.87,15.87,13.33c2.59,4.66,4.17,9.71,4.63,14.94
		c0.81,9.06,1.2,18.16,1.65,27.25c0.05,1-0.47,2.23-1.11,3.03c-3.82,4.74-9.01,7.55-14.5,9.84c-8.16,3.39-16.71,5.22-25.46,6.16
		c-3.77,0.4-7.55,0.66-11.33,1.01c-0.42,0.04-0.82,0.2-1.23,0.3C108.08,182.36,101.56,182.36,95.05,182.36z"/>
	<path d="M138.37,55.07c0.31,9.07-1.79,18.22-7.15,26.49c-5.34,8.24-12.59,13.88-22.49,15.34c-7.55,1.12-14.53-0.75-20.73-5.22
		c-8.61-6.19-13.59-14.81-15.63-25.02c-2.12-10.62-1.58-21.26,1.53-31.66c3.35-11.16,11.25-17.04,22.56-18.72
		c7.04-1.05,14.03-0.94,20.95,0.89c9.02,2.39,14.99,8.06,18.05,16.85C137.76,40.62,138.27,47.45,138.37,55.07z"/>
</g>
</svg>
