<svg enable-background="new 0 0 210 198" viewBox="0 0 210 198" xmlns="http://www.w3.org/2000/svg"><path d="m150.3 62.6c2.6-2 5.8-2.6 8.8-3.4 2-.6 4.1-1 6.2-1.5v1c-4.1.5-8.2 1.5-12.1 3-.9.3-1.8.7-2.8 1 0 0 0 0-.1-.1z"/><path d="m100.2 142.3c.5.2 1 .4 1.6.7v5.5c1.8.6 3.4.4 4.8-1.1 0-1.1 0-2.2 0-3.8-.8 1.5-1.3 2.5-2 4 0-2.9 0-2.9 1.5-4.3.3-.3.4-.8.8-1.7-.8.4-1.2.6-1.5.8-.3.1-.5.2-.9.4.3-1.4 1.5-1.4 2.3-2 1.1-4.1 2.4-8.3 3.2-12.6.6-3.1.2-6.3-.7-9.1-2.6-.3-5.1-.5-7.7-.8.7 2.9.5 5.8-.2 8.9-.6 2.5 0 5.1.6 7.6.6 2.3.3 4.6.3 7.2-.3-.4-.4-.5-.4-.5 0-4.1-.9-8.2-1.5-12.3-.1-.9.1-1.8.4-2.7.7-2.8.7-5.6 0-8.3-.1-.4 0-.8 0-1.2l2.7-1.5c-.1.6-.3.8-.6 1.1-.2.2-.5.4-.9.8 3.1 1.3 6 1.3 8.8-.3-.9.1-1.8.2-3 .4 1.1-.9 2-1.6 3-2.4h-.1c.8-.3 1.5-.6 2.3-.9.2-1.2.4-2.2.7-3.7-2.7 1.4-4.9 2.8-7.1 5.1.2-.8.2-1.3.5-1.6 2-2.1 4.2-3.7 7-4.7.7-2.8 1.6-5.6 1.3-8.8-.6.3-.9.3-1.1.5-.2.3-.3.7-.5 1.1-.3.2-.7.3-1 .5-.9.1-1.4.5-1.5 1.5-.4.2-.9.4-1.6.7 1.2.4 1.5 0 1.6-.7l1.5-1.5h1c-.6.8-1.1 1.5-2 2.6 1.2-.6 1.9-1 2.8-1.4-.5 1.1-.9 1.9-1.3 2.8-.2.2-.3.3-.5.5-.3.2-.7.3-1 .5-.2.2-.3.3-.5.5-.1.1-.1.1-.1.2 0-.1.1-.1.1-.2.2-.2.3-.3.5-.5.3-.2.7-.3 1-.5.2-.2.3-.3.5-.5.3.1.6.2 1.1.3-1.6 1.3-2.9 2.4-4.2 3.5-.3-.3-.5-.4-.6-.6-.1-.1-.2-.2-.3-.3 0-.1 0-.3.1-.4 0-.1.1-.1.1-.2 0 .1-.1.1-.1.2-.3-.1-.6-.1-1.1-.2 1.1-1.1 2-2.1 2.8-3-.9 0-1.9 0-2.9 0-1.2 1.2-2.4 2.5-3.8 4h1.3c-1.3 1.1-2.5 2.1-3.7 3.1-.2.2-.3.3-.5.5-.1.1-.1.1-.2.2 0-.1.1-.1.1-.2.2-.2.3-.3.5-.5.8-.3 1.5-.6 2.3-.9.1.1.1.2.2.3-.6.6-1.3 1.1-1.9 1.7-.1.1-.2.1-.2.1s.1-.1.1-.2c.4.1.8.1 1.4.2-1.2 1-2.8 1.2-2.9 2.8-.4-.4-.9-.7-1.6-1.3-.6 1.9-1.2 3.7-1.8 5.6-.1.4 0 .8.2 1.2.3.8.6 1.6.9 2.3.8 2.1 1.2 4.3.4 6.5-.8 2.3-1.3 4.6-.6 7 .2.5 0 1.1-.2 1.7-.9-2.3-1.4-4.8-.4-7.1 1.3-3.3.8-6.4-.5-9.6-.4-.9-.7-1.8-1-2.6-1.7-.9-2.3.9-3.8.9.2-.3.3-.6.4-.9-2.4-.4-2.6-.3-5.2.9-1 2.8-.2 5.2.9 7.8 1.6 3.6 2.8 7.4 4.1 11.1.3.8.3 1.7 0 2.7-.1-.3-.3-.6-.4-.9-.8-4.6-2.5-8.9-4.5-13.1-1-2.1-1.7-4.2-1.2-6.7.3-1.4-.4-3-.8-4.5-.3-1-.7-1.8.1-2.8l.2.2c-.7 1.7 1.8 2.1 1.4 3.7 0 .1.6.2.9.4-.2.4-.3.6-.4.8-.1.1-.1.1-.2.2 0-.1.1-.1.1-.2 1.2-.2 2.5-.5 3.7-.7-.1-.4-.2-.7-.2-1.1.7-.3 1.3-.5 2-.7h.5c.1-.1.2-.1.2-.1s-.1.1-.1.2c-.2 0-.4 0-.6 0-1.7-.9-3.5-1.7-5.2-2.7-.5-.3-.9-.9-1.3-1.3 1.5.7 3 1.3 4.4 2.2.9.6 1.8 1 2.8.7 1.6-.5 3.2-1.1 4.8-1.8.3-.1.3-.9.5-1.6-2.2.7-3.6 2.4-5.7 2.5.6-.5 1.2-1.1 1.8-1.6.3-.2.7-.3 1-.5.8-.4 1.7-.8 2.5-1.4.6-.4.7-1.1 0-1.6 0-.2 0-.3 0-.5.2-.2.3-.3.5-.5.6-.5.9-1 .8-1.8-.3-.1-.6-.1-.8-.2.4-.3.8-.7 1.1-1-.2-1.2-.4-2.3-.6-3.6-1.2.5-2.2.9-3.2 1.4-.1-.4-.2-.7-.3-.9.4-.1.7-.1 1.1-.1 0-.1-.1-.2-.1-.3-.3.2-.6.3-1 .5-.7 0-1.4-.1-2 .1-2.8.9-5.4.5-7.9-.9-.8-2.1-.9-4.6-.3-7.1.6 2.3-.4 4.7 1 6.7 4.2 1.6 4.9 1.6 7.7-.4-2.1.6-3.7 1.6-5.4.3 2.2-1.1 4.5-.7 6.7-1.1.1 0 .2.2.4.3-.4.2-.7.4-1.1.6.1.2.2.5.3.7-.1.1-.2.1-.2.1s.1-.1.1-.1c.9-.3 1.8-.6 2.7-.9-1.5-3.1-1.5-4.3.3-6-.4 1.6-1 3.1-.1 4.7 3.2-1.5 2.2-4.4 2.7-7.2.4.7.6 1.1.8 1.4.8-.5 1.2-1.6 2.4-1.1-.8 1.4-2.3 2.3-2.2 4.3.9-.6 1.6-1.1 2.5-1.7-.3.9-.5 1.6-.7 2.2-.1.1-.2.1-.1.1 0 0 .1-.1.1-.2.6-.4 1.2-.8 2.1-1.5-.5 1.1-.8 1.8-1.1 2.5 2.2-1.2 2.8-3.1 2.3-5.4-.1-.3-.2-.6-.2-1 0-.3.1-.6.1-.9h.5c.2 1.4.4 2.9.6 4.3.2.2.5.3.9.6-1.3 1.1-1.4 2.3-.9 4 1.9-1.5 3.7-3 4.7-5.1.1-.1.1-.1.1-.2 0 .1-.1.2-.1.2-.3 0-.6.1-.9.1-.1-.1-.2-.2-.3-.3.4-.5.7-.9 1.1-1.4.4-.2.8-.4 1.5-.7-.6-.2-.8-.2-1-.3.1-.8 1.5-1.2.6-2.5-.7.5-1.3.9-2.1 1.4-1.1-.4-2.8.2-3.5-1.5 1.5-.5 2.8-1 4.2-1.4-1-.2-1.7-.3-2.6-.8-2-1.2-2.1-1.1-4.3-1.1-.7 0-1.3-.1-2-.1-.5 0-1 .1-1.4.1v.4c.8.3 1.6.5 2.5.8-1.3.7-3.1.1-3.6 2-1.7-1.5-3.7-.2-5.6-.9 1.5-.3 3-.6 5-.9-1.5-.6-2.6-1.1-3.8-.5-2.3-1-4.3.5-6.3 1.1-1 .3-2 .7-3 1 .6-.4 1.1-.9 1.8-1.2 2.7-1.2 5.3-2.3 8-3.3 2-.7 4.1-1.2 6.3-.7.7.2 1.4 0 2.2 0 .2-.5.2-.8.5-1.5-2.5.3-4.8.6-6.9 1-1.8.3-3.6.7-5.2 1.4-1.3.5-2.5.9-3.8.8-1-.1-2 0-3 0-1.9 0-2.3.5-2.2 2.4 0 .5.1.9.2 1.5.8-.2 1.5-.3 2.2-.5-.7.6-1.4 1.2-2.3 2-1 2.1-1.3 4.4-.7 7 .5 2.3 1.1 4.8.8 7.1-.4 2.7 0 5 1.3 7.3-.3 0-.7 0-1 0-.1-.2-.1-.4 0-.1-.2-.3-.1-.1.1.1.1.3.1.6.1.9-.1.1-.2.2-.3.2-1.4-1.3-1.3-3.1-1.2-4.6.3-4.1.3-8-.6-12-.4-1.7-.2-3.4.5-5.1.2-.6.3-1.3.4-1.9.1-2.1.2-4.2.3-6.3 0-.4.2-.8.3-1.2.2-.8.4-1.6.4-2.4-.1-2.5-.3-4.9-.4-7.4.2-.5.3-1 .5-1.5-.1 0-.2-.1-.4-.1 0 .5-.1 1.1-.1 1.6-.3.8-.6 1.6-.9 2.4-.3.7-.7 1.4-1.1 2.1.3-1.7.7-3.3 1-5 .1-.4.3-.7.4-1.1-.1 0-.1 0-.2-.1-.1.4-.1.8-.2 1.2-.5.7-1 1.3-1.5 1.9-.1-.2-.4-.5-.4-.5 1.1-1.4.8-3.1.9-4.6.1-.8.3-1.6.4-2.3.7-.3 1.1-.7.7-1.9-.3.9-.5 1.4-.7 2-.3.1-.6.1-1.2.2.3-1.3.6-2.4.8-3.5-1.3 0-2.6 0-3.8 0-.3.8-.4 1.4-.7 2-1 2.1-1.2 4.2-1.2 6.5.1 3.6.1 7.1.1 10.7 0 1.4-.3 2.8-.4 4.2-.1 1 0 2.1 0 3.2.6.1 1 .1 1.4.2 1.8 1.1 2.1.9 2.3-.9-.8.3-1.5.7-2.3 1 .3-.5.7-1 1-1.4-.1-.2-.2-.3-.4-.6.6-.5 1-.9 1.5-1.3.5-.3 1.2-.5 1.9-.8-.4-.7-.8-1.1-1.2-1.8-.2.7-.3 1.2-.6 2.2-.4-2.7.7-6.9 2.4-9.3-.3 1.3-.6 2.6-1 3.8s-.5 2.3.4 3.5c2.1 2.8 1.1 5.7.1 8.5-.2.4-.8.9-1.3 1-1.4.3-2.9-.6-3.7-1.9-1.2-1.9-1.4-3.8-.9-6.1.5-2.2.3-4.6.2-6.9-.1-3.6-.5-7.1.2-10.6.3-1.5.9-3 1.5-4.6-1-.9-.9-2-.7-3.4.7-3.9 1.1-7.8 1.7-11.8.2-1.1.3-2.1.6-3.2.6-2.1 1.7-3.8 3.8-4.5 2.5-.9 4.9-1.9 7.4-2.7 2.3-.7 2.9-2.6 1.3-4.5-1.3-1.5-1.3-3.4-1.1-5.1.2-1.4.2-2.8 0-4.1-.4-3 1.2-5.2 4.2-5.7 1.8-.3 3.6-1.4 5.7-.8.7 1 1.8 2 3.1 2.7.5.3 1 .8 1 1.3.2 1.8.8 3.4.8 5.3-.1 2.2.1 4.4-.5 6.6-.2.9-.5 1.7-.7 2.6-.2.7-.3 1.4-.4 2.1 2.9 1.8 5.5 3.6 8.6 4.8 1.3.5 2.3 1.5 3.5 2.2-.1.1-.2.2-.3.3-1-.6-2-1.2-3-1.7-2.3-1.2-4.6-2.2-6.8-3.5-1.2-.8-2.6-1.3-3.7-1.1-1.9.3-3.7-.4-5.6-.3-1.8.1-3.6-.2-5.4-.4-.4 0-.8 0-1.2.1-2.1.8-4.2 1.6-6.3 2.3-2.6.9-3.8 2.8-4.1 5.4-.5 3.3-1 6.7-1.5 10-.2 1.3-.3 2.7-.4 4 1 .4 1.8.7 2.6 1 0 .1-.1.2-.1.3-.9-.1-1.8-.3-3.2-.5 1.9 1 1.9 1 4.4.8.1-1.4.4-2.7.3-4-.1-1.6.8-3.2-.3-4.7 0-.4-.1-.8-.1-1.2-.1 0-.2 0-.3.1.2.4.3.7.4 1.1 0 .5-.1.9-.2 1.7-1.7-2.9-1.7-5.4-.1-8.2.2 1 .3 1.6.4 2.4.6-1.9 1.2-3.6 1.7-5.2.2 0 .3 0 .4.1-.1.9-.2 1.9-.3 2.8-.8.7-1 1.6-.7 2.6.2-.9.4-1.8.6-2.7.3-.3.5-.6.8-.9.1 0 .2.1.4.2-.6 2.1-1.3 4.2-1.9 6.4.3.5.6 1 1.1 1.9.7-2.4 1.3-4.3 2-6.7.6 1.7 0 2.9-.4 4-1.4 3.6-1.6 7.2-1.3 11 .2 1.9.4 3.8.6 5.7.6-2 1.2-3.9 1.7-5.9.5-1.9.6-3.9 1.2-5.8s-.1-4.1 1.2-6.4c.1.7.3 1 .2 1.3-.5 3.2-.9 6.5-1.7 9.7-1.3 5.1-2.7 10.2-2.3 15.6.1 2.1.3 4.1-.4 6.2-.1.3 0 .8.1 1.2 1 .2 1.9-1.1 2.7.2 1.5-.4 3.1.7 4.6-.2s3.2-1.3 4.9-1.6c1.5-.2 2.9-.6 4.2-.8.4-.7.7-1.3 1-1.8s.8-.9 1.4-1.8c-1.9 0-3.3 0-5.1 0 1.9-1 1.9-.9 4-.6 1.8.3 2.1.1 3-1.4-1.3-2-2.6-3.9-3.9-5.8.1-.1.2-.2.3-.2.5.5.9 1.1 1.5 1.7.7-.6 1.2-1.1 1.9-1.7-1.7-2.4-3.1-4.9-3.5-7.7.6.7.9 1.4 1.3 2.2.4.9.8 1.8 1.2 2.7.1.2.4.3.6.4.6-.4 1.1-.8 1.5-1.1-.1-.5-.2-.9-.3-1.3.6.1 1.1.2 2.1.4-.3-1-.5-1.5-.9-2.6-.5 1-.8 1.6-1.1 2.2-.7-.8-1.4-1.6-2.1-2.4.1-.1.2-.2.3-.2.4.4.8.7 1.4 1.2.5-.4.9-.8 1.3-1.2-.3-.6-.6-1-.8-1.6.5-.6.9-1.2 1.4-1.8-.2-.2-.4-.5-.6-.7.2-1 .8-1.5 1.9-1.7-.2.6-.4 1.2-.5 1.7.1.1.2.2.3.2.5-.4 1.1-.9 1.6-1.3-.3-1.2-.7-2.2-.9-3.2.1 0 .3-.1.4-.1.5.9 1 1.8 1.5 2.8.5-.4.9-.6 1.3-.9-.7-.7-1.2-1.3-1.8-2-.5-.6-1.1-1.1-.8-2.4 1.5 2 2.8 3.8 4.1 5.4.4-1.6.7-3.5-.1-5.3s-1.7-3.4-2.6-5.3c2.8.4 2.3 3.2 3.7 4.6 0-1.7 0-3.1 0-4.7 1 .7.7 1.5.8 2.3.1 1.1.2 2.2.3 3.4.1.1.2.2.3.3 0 .3-.1.6-.1.9-.1 0-.1.1-.2.1 0 0 .1-.1.1-.2.2-.1.4-.2.7-.3.3 1.1.7 2.2 1 3.2-.4 1.6-2.3 2.4-2.1 4.3.7-.8 1.3-1.5 1.9-2.2-.3.8-.5 1.7-.9 2.7.8 0 1.5.1 2.4.2-.2-1.2-.4-2.2-.6-3.1-.5.2-.7.2-1 .3 1-1.4 1.2-3 .8-4.6-.4-2.3-1-4.5-1.5-6.8.1-.1.2-.2.3-.2 1.4 2.2 1.5 4.8 1.9 7.3.4 2.3.6 4.6.6 6.9.1 4.9 1.9 9.5 2.5 14.3.3 2.4.4 4.8.4 7.2.1 3.2.3 6.4.9 9.6.2 1 .3 1.9.4 2.9 0 .6-.2 1.4-.5 1.9-.8 1.2-1.8 2.4-2.8 3.4-.8.9-1.9.8-3.1-.2.4-.2.8-.3 1.1-.4.2.1.4.3.1.1.3.1.1 0-.1 0 .2-.3.4-.7.5-1 .5.4.9.8 1.4-.1-.5.1-.9.1-1.4.2-.2-.5-.4-1.1-.6-1.7-.7.6-1.3 1.1-2.1 1.8-.5-2-.4-3.7-.1-5.3.1-.5.2-1 .4-1.4 2.6-5.7.8-10.8-2.1-15.8.1 0 .2-.1.2-.1-.1-.1-.1-.2-.2-.4-.1-.6.2-1.4-.8-1.8-.2.9-.1 1.5.8 1.7v.5c-.1.3-.4.7-.4 1 .1 1.6.4 3.2.2 4.7-.2 1.1.2 1.8.8 2.8-.5.2-.8.3-1.1.5-1.1-.9-2.4-.2-3.7-.4 1.2 1.3 2.5.6 3.7.4 0 .6.1 1.3.1 1.9 0 .4-.2.9 0 1.2 1.1 2.5.5 5.2.8 7.8.6 5.9-1.6 11.2-2.5 16.8-.1.7-.2 1.3-.4 2.1-.8.5-1.7 1-2.8 1.7 0 .5-.1 1.1 0 1.6 1 4.6.6 9-.8 13.4-.9 2.9-1.4 5.9-2.1 8.9-.1.6-.1 1.3-.1 1.9.3.2.4.3.5.3 3.1.5 3.7 1.8 2 4.5-.4.6-.7 1.1-1.1 1.7-1.4 2.4-5.3 3.5-7.6 1.9-.7-.5-.9-1.6-1.3-2.6-.7.6-1.1 1.4-.8 2.6.3 1.3.4 2.6.3 3.9-.2 4-4.8 6.9-8.6 5.5-1.2-.5-2.2-2.5-1.9-4 .2-.7.4-1.4.8-2.1 1.1-2 1.7-4.1 1.6-6.4 0-2 .8-3.5 1.9-5 .6-.8 1.1-1.6 1.7-2.6.6-.2 1.3-.5 2.1-.7 1.2-.3 2.6-.8 3.4.9-.5-.1-1.1-.2-1.7-.3-.5.4-1.1.9-1.8 1.3-.9.2-1.5.7-1.6 1.7.5-.6 1.1-1.1 1.6-1.7 1.1-.1 2.2-.1 3.3-.2-.3-.7-.2-.9-.1-1.2zm-15.4-71.6c-.2.2-.3.3-.5.5-.1.1-.1.1-.1.2 0-.1.1-.1.1-.2.1-.2.3-.4.5-.5 0-.1.1-.2.1-.2s-.1.1-.1.2zm15.4 77.1c.1-.1.1-.1.1-.2-.1.1-.1.2-.1.2 0 .1-.1.1-.1.2 0-.1 0-.1.1-.2zm13.9-57.7c-.1.1-.1.1-.2.2.1-.1.1-.2.2-.2 0-.1.1-.2.1-.2s0 .1-.1.2zm-11.9-60.2c-.1.1-.2.1-.2.1s.1-.1.2-.1c0-.1.1-.1.1-.2-.1.1-.1.1-.1.2zm2.5 4.9c-.2.2-.3.3-.5.5s-.3.3-.5.5c-.3-.1-.6-.1-.9-.2.3-.5.6-.9.8-1.3.1-.1.2-.1.2-.1s-.1 0-.1.2c-.8-.1-1.6-.2-2.2-.3-.7.3-1.2.6-1.9 1-.2-.6-.2-1-.5-1.2-.2-.2-.6 0-.9 0-.2 0-.4 0-.5 0-.4-1.2 1.2-1.2 1.4-2-.2-.5-.3-.8-.4-1.2.7-.5 1.3-.9 2.3-1.5-1.2 0-2 0-3.1 0 1.2-1.5 2.8-1.9 3.9-2.9-.3-.5-.5-.9-.8-1.4.5 0 1 0 1.6-.1-.5-.8-.9-1.4-1.3-2-.2.4-.4.8-.6 1.1-.6-.1-1-.1-1.5-.2-.1-.3-.1-.5-.2-.7.3-.3.6-.6 1.2-1.2-1 0-1.6 0-2.2 0 .4.5.7.9 1 1.2-1.3.6-2.1-.4-3.6-.8.9-.2 1.3-.3 2-.5-3.5-.4-5.1 1.1-4.9 4.2 0 .7 0 1.4.2 2 .7 2.1.9 4.5 2.6 6.2.1.1.1.3.1.5-.3.2-.7.4-.7.5-.2 1.7-.4 3.2-.6 4.7 3.2.1 6.7.2 10.2.4.1-.8.5-1.9.2-2.5-.4-.6-.1-.8 0-1.2.3-.1.6-.2.9-.3-.1-.1-.2-.2-.2-.3-.2.2-.4.5-.6.7-.3-.2-.7-.3-1-.5l.5-.5c.2-.5.3-.6.6-.8 0-.1.1-.1.1-.2-.1.1-.1.2-.1.2zm-3.6 73.2.5-.5c.8 0 1.4-.4 1.6-1.4-.5.5-1 .9-1.6 1.4-.1.2-.3.4-.5.5 0 .1-.1.2-.1.2s.1-.1.1-.2zm2.1-6.4c-.2.2-.3.3-.5.5-.1.1-.2.1-.2.1s.1-.1.1-.2c.2-.1.4-.3.6-.4 0-.1.1-.1.1-.2-.1 0-.1.1-.1.2zm-1.1 2.4.5-.5c.3-.2.7-.3 1-.5l.5-.5h1 .5c.6-.2 1.2-.4 1.8-.6-.2-.8-.4-1.5-.6-2.5-1 1.2-1.8 2.2-2.7 3.1-.2.2-.3.3-.5.5-.3.2-.7.3-1 .5-.1.2-.3.4-.5.5 0 .1 0 .2-.1.2.1-.1.1-.1.1-.2zm7.5-38.3c-.1-.1-.1-.2-.1-.2s.1.1.1.2c.1.2.1.4 0 0 .2.4.1.2 0 0zm1 6.4c.2 0 .5-.1.7-.1-.1-.1-.1-.2-.1-.3-.2.2-.4.3-.6.4-.1.1-.1.2-.1.2s0-.1.1-.2zm1 1.1c-.3.2-.7.3-1 .5-.3.1-.6.3-.9.4.1.1.1.2.2.3.2-.3.5-.5.7-.8.3-.1.7-.3 1-.4.2-.1.5-.1.7-.2-.1-.1-.1-.2-.2-.3-.1.2-.3.3-.5.5zm0 2.9c.3-.2.7-.3 1-.5 1.4-.2.9-1 .8-1.8-1.6-.1-2.5.9-3.5 1.6-.6-.3-1.1-.6-1.7-.8-.7.5-1.3 1-2.3 1.7.6.5 1.1.8 1.5 1.2.6-.1 1.2-.2 1.7-.3-.2.4-.3.7-.5 1.2.9.8 1.8 1.7 2.8 2.6.5-.3.9-.5 1.2-.7.2-.1.4-.3.6-.4-1.9-.3-1.9-.3-3.4-2.1.3 0 .5-.1.7-.1 1.1 1.2 2.2 1.1 3.5 0-.1-.4-.2-.9-.3-1.3-1 .3-1.9.6-2.7.9 0-.2 0-.3 0-.5.2-.3.4-.5.6-.7zm-11.5 24.9c.2-.1.4-.1.1 0 .3-.2.1-.1-.1 0 0 .1 0 .2-.1.2.1-.1.1-.1.1-.2zm12 15.5c.1-.2.3-.4.4-.6-.1 0-.2-.1-.3-.1 0 .2-.1.4-.1.7-.1 0-.2.1 0 0-.1.1-.1 0 0 0zm-27.9-46.8.7-.7c-.1-.1-.2-.1-.3-.2-.1.3-.2.6-.4.9 0 .1-.1.1-.1.1s.1-.1.1-.1zm12.5 75.1c.4 0 .8-.1 1.2-.1 0-.1-.1-.2-.1-.3-.4.2-.7.3-1.1.4 0 .1-.1.2-.1.1-.1.1 0 0 .1-.1zm-4-113.4c-.1 0-.1-.1-.2-.2.1 0 .2.1.2.2.1.7.2 1.4.3 2.6.9-1.5.2-2-.3-2.6zm18.4 50.7c.3.2.7.3 1.1.4 0-.1.1-.2.1-.3-.4 0-.8 0-1.2-.1-1.3-.6-3.6-.6-5.5 0-.4 0-.8 0-1.2.1 0 .1.1.2.1.3.4-.1.7-.3 1.1-.4zm-9.5 23.9c1.1-.5 2.1-1.1 3.4-1.8-1.9-.4-2.5.9-3.4 1.8 0 .1 0 .2-.1.2.1-.1.1-.1.1-.2zm13-9.9c-1.1.5-1.6 1.3-1.5 2.5-1.4.4-2.3 1.3-3 2.7 2.5 0 3.9-.8 4.9-2.8-1.1.8-2 1.3-2.8 1.9-.1-.1-.1-.2-.2-.2.3-.5.7-1.1 1-1.6 1.7-.2 1.6-1.4 1.6-2.5.1-.1.1-.2.2-.3-.1 0-.1.2-.2.3zm-10 9.9c1.9-.6 3-2.1 4.2-3.5-1.8.7-3.1 1.9-4.2 3.5 0 .1-.1.1-.1.2.1-.1.1-.1.1-.2zm1.6.5c-1.8.4-3.4 1.2-4.6 2.8 1.5-.8 3.5-1.1 4.6-2.8 0-.1.1-.2.1-.2-.1.1-.1.2-.1.2zm6.9-21.9c-1.3.3-2.6.6-4 .9-.1-.2-.2-.5-.3-.8-.8 0-1.7-.1-2 1.1 1.2.3 2.4.5 3.1.6 1.2-.7 2.2-1.2 3.2-1.8.2-.1.4-.1 0 0 .4-.2.2-.1 0 0zm-1.5-21.9c-.3.5-.7 1-1 1.6.4.3.7.6 1 .9.9-.6 1.7-1.2 2.5-1.8 0-1.5.5-3-.4-4.2-1.2.1-.8.9-1 1.5-.4-.2-.7-.3-1.2-.5-.7.8-2.3 1-1.5 2.8.5-.1 1.1-.2 1.6-.3zm4.3 7.3.3.3c0 .5 0 1.1-.1 1.6-.1.3-.4.6-.4.8.3 2 .4 4.2 1.2 6 1.5 3.4 2.3 7 2.8 10.7.6.6 1.1 1.1 1.8 1.7-.5.3-.9.5-1.2.7v1.5c-.1 0-.2.1-.3.1-.2-.5-.5-1-.8-1.7-.4 1.2-.7 2.1-1 3 .5.4.9.8 1.4 1.3.3-.5.5-.9.8-1.3.6.1 1.1.1 1.9.2-.1.7-.1 1.4-.2 2.1-.1.2-.2.4-.1.1-.1.3 0 .1 0-.1.4-.1.9-.3 1.2-.4.1.6.2.9.2 1.3.4-.3.5-.7.5-.9-.2-1.9-.6-3.9-.7-5.8-.2-3.5 0-7.1-.3-10.6-.2-2.5-1-5-1.5-7.5 0-.1-.3-.1-.4-.2-.3.3-.6.7-1 1.2-.7-.5-1.2-1-1.8-1.5.8-1.4 2-1.2 3.3-1.1-.8-2.6-1.6-5-2.4-7.5-1.1 0-2.4 0-3.8 0-.1.5-.1.9-.2 1.3-.1.1-.2.1-.2.1s.1-.1.1-.2c.9.5.2 1 0 1.5-.1.1-.1.1-.2.2 0-.1.1-.1.1-.2 1.3.3-.4 1.3-.1 1.5.7.2.8.3 1 .4-.3.7-.6 1.2-1 2 .7-.4.9-.5 1.1-.6zm-1.9-3.3c-.2 0-.3 0-.4 0-.1 1.1-.3 2.1-.3 3.2 0 .9.1 2 .6 2.5.8.8-.1 1.9.7 2.6 0 0 .2-.1.5-.2-.4-2.7-.7-5.4-1.1-8.1zm-4.4 3.3c-.6-.5-1-.8-1.4-1.2-.7.6-1.4 1.1-2.2 1.8.4.5.7.8 1 1.1.9-.6 1.6-1.1 2.6-1.7zm-11.7 46.4c-1.2.9-2.1 1.7-3.1 2.5.6.4 1.2.8 1.9 1.3.5-1.4.8-2.5 1.2-3.8zm10.1-42.4c-.6-.5-.9-.8-1.2-1.2-.8.6-1.6.9-1.9 1.9 1.3 1 1.9-.4 3.1-.7zm2.3-3c-.1-.1-.1-.2-.2-.3-.8.5-1.6 1-2.6 1.6.5.5.9.9 1.3 1.2.6-.9 1-1.7 1.5-2.5zm-9.1 40.4c1.7-.6 1.7-.6 2.2-1.9-1.1.3-2 .6-2.2 1.9zm7.2-30.5c0-.2 0-.4 0-.5-1-.1-2.1-.5-3.2.5zm9.2 18.6c1.8-1.3 0-2.6.7-3.7-1.1 1.1-.2 2.3-.7 3.7zm-16.9 11.4c-.2 0-.4 0-.5 0-.1.7-.3 1.4-.4 2.2-.1.5 0 1 0 1.5h.2c.2-1.3.5-2.5.7-3.7zm5.3-80c-.9 1.7-.9 1.7 0 2.7 0-.8 0-1.5 0-2.7zm4.4 38.7.5-.5c-.2-.7-.7-1.2-1.8-.8.4.4.8.8 1.3 1.3zm.5-2.7c-.1.2-.2.3-.3.4.5.2.6 1.4 1.8.7-.6-.4-1-.7-1.5-1.1zm-16.7 82.2c.2 0 .4.1.5.1.1-.6.2-1.3.3-1.9-.1 0-.2-.1-.4-.1-.1.6-.2 1.3-.4 1.9zm18.6-82.4c.3-.6.5-1.1.7-1.5-.7.2-1.5.3-.7 1.5zm-4.3 12.8c-.9-.7-.9-.7-1.6.1.5-.1 1-.1 1.6-.1zm-9.9 75.6c-.2-.1-.3-.1-.5-.2 0 .2-.1.4-.1.6-.1.2-.2.4-.3.5.2.1.3.1.4.2.1-.3.3-.7.5-1.1zm3.4-127.2c0-.1-.1-.3-.1-.4-.3 0-.6 0-.8.1s-.4.3-.6.5c.1.1.1.2.2.2.4-.1.9-.2 1.3-.4zm-8 123c0 .1.1.2.1.2.2-.1.4-.1.6-.1.2-.1.4-.2.6-.4-.1-.1-.1-.2-.2-.3-.4.2-.7.4-1.1.6zm18.9-67.7c.1.1.1.2.2.3.3-.2.6-.3.8-.5-.1-.1-.1-.2-.2-.3-.3.2-.5.3-.8.5zm-12.7-51.4c.2.1.3.2.4.3.2-.2.3-.5.4-.7-.2-.1-.3-.2-.5-.3-.1.2-.2.5-.3.7zm4.6-6.7c.1 0 .2-.1.3-.2-.2-.3-.3-.6-.5-.9-.1 0-.2.1-.3.2.2.3.4.6.5.9zm-4.1 120.8c.1 0 .2.1.3.1 0-.4 0-.8 0-1.1-.1 0-.1 0-.2 0 0 .3-.1.6-.1 1zm22.6-47c-.1-.1-.1-.2-.2-.3-.3.2-.6.4-.9.5.1.1.1.2.2.3.3-.1.6-.3.9-.5zm-26.5 59.7c0-.1 0-.1 0-.1-.2 0-.5 0-.7 0v.1zm8.3-130.9c-.1 0-.2-.1-.3-.2-.2.2-.3.4-.4.6.1.1.2.1.3.2.1-.2.2-.4.4-.6zm-13.1 129.3c-.1.1-.1.1-.2.2.2.2.3.3.4.5l.2-.2c-.1-.2-.2-.3-.4-.5zm-7.5-92.5c-.1.2-.2.4-.2.5s.2.2.3.2c0-.2 0-.4-.1-.7zm28.9 14.2c.5.4.7.5.8.7.1-.1.1-.3.1-.4-.1-.1-.3-.1-.9-.3zm-4.4-16.1c-.1 0-.1-.1-.2-.1-.1.2-.2.3-.3.5.1 0 .2.1.2.1.1-.2.2-.3.3-.5zm-8.2-41.9s0-.1-.1-.1-.2 0-.2 0c0 .1 0 .2.1.3.1-.1.2-.1.2-.2zm9.5 70.7c-.2 0-.3-.1-.4-.1 0 .1.1.1.1.1zm-17.8 64.2c-.1 0-.1 0-.1.1s0 .1-.1.2c.1 0 .2 0 .2-.1.1 0 0-.1 0-.2zm12.3-72.3c-.1 0-.2 0-.2 0 0 .1 0 .1.1.1h.2c-.1 0-.1-.1-.1-.1zm-6.8 74.9c0-.1-.1-.1-.1-.2-.1.1-.2.1-.1.1l.2.2c0 .1 0 0 0-.1zm1.8-55.8c0-.1 0-.1-.1-.2-.1 0-.2 0-.2-.1 0 .1 0 .2.1.3zm-6.5 51.7c0-.1 0-.1 0-.2-.1 0-.1 0-.2 0 0 .1 0 .2.1.3 0-.1.1-.1.1-.1zm7.6-39.4-.1.1h.1z"/><path d="m69 133.1c-2.5 2.1-5.1 4.2-7.6 6.4-1.7 1.4-3.5 2.8-3.9 5.2.6 1.9 2.3 2.1 3.8 2.5s2.8 1 3.5 2.5c-.1 1.3-.6 2.4-1.6 3.2-2.9 2.4-5.9 4.8-8.8 7.2-1.2 1-2.6 1.8-3.9 2.6-.5.3-1.1.4-1.6.6-.1-.2-.2-.3-.2-.5 2.8-1.9 5.6-3.8 8.3-5.8s5.7-3.7 7-6.8c-.2-1.3-1-1.7-1.9-2-1-.3-1.9-.6-2.8-.9-2.4-.9-3-3.1-1.6-5.2.4-.6.9-1.2 1.5-1.6 3.2-2.6 6.4-5.2 9.6-7.8 0 .2.1.3.2.4z"/><path d="m141.6 141c-.6 1-1.3 1.9-1.9 2.9-.9 1.6-1 3.3-.3 5 1.2 2.6 3.1 4.7 5.4 6.3 2.6 1.8 5.3 3.3 7.9 5 1.3.8 2.5 1.8 3.6 3-.3 0-.7 0-.9-.1-3.9-2.5-7.8-4.9-11.6-7.6-1.6-1.2-2.9-2.9-4.2-4.5-2.5-3.1-1.8-6.2.2-8.9.4-.5.9-1 1.4-1.4.2.1.3.2.4.3z"/><path d="m134.6 121.1c-.2.6-.4 1.2-.6 1.9-1 3.1-.1 5.6 2.8 7.1 1.5.8 3.2 1.2 4.9 1.8.8.3 1.6.5 2.3.9 1.6.9 2.1 2.2 1.1 3.8s-2.3 3-3.4 4.5c-.1-.1-.2-.2-.3-.3.5-.7 1-1.3 1.4-2 .8-1.2 1.5-2.5 2.2-3.5-.7-1.9-2.1-2.2-3.4-2.7-1.4-.6-3-.9-4.4-1.6-4.7-1.9-5.3-6.7-2.7-10.1-.1 0 0 .1.1.2z"/><path d="m146.3 105.9c2.2-3.1 4.4-6.1 6.7-9.2 1.9-2.6 3.8-5.2 5.7-7.8.1.1.2.2.3.3-2.8 3.9-5.5 7.8-8.3 11.7-1.3 1.8-2.8 3.5-4.2 5.2 0 0-.1-.1-.2-.2z"/><path d="m147.1 77c3.4 4.4 3.3 9.4-.5 14.7-.1-.1-.2-.2-.3-.3.6-1.4 1.3-2.8 1.9-4.3.9-2.4 1-4.8-.2-7.2-.5-.9-.8-1.8-1.1-2.7 0 0 .1-.1.2-.2z"/><path d="m125.9 106.9c3.5-1.8 6.9-3.7 10.4-5.5.1.1.2.2.2.3-3.1 2.5-6.5 4.6-10.4 5.5 0-.1-.1-.2-.2-.3z"/><path d="m146.8 77.3c-2.3-2.9-3.2-6-1.9-9.6.1-.2.3-.4.4-.6.1.1.2.2.2.2-1.1 3.1-.6 5.9 1.1 8.6.2.3.3.7.4 1.1 0 .1-.1.2-.2.3z"/><path d="m153.3 75.3c-.9-.7-1.9-1.3-2.7-2.2-1.9-1.8-1.8-3.1.3-4.7.2-.2.6-.3.9-.4.1.1.2.2.3.3-.7.7-1.5 1.5-2.2 2.2.6 2.2 2.6 3 3.7 4.5-.2.1-.2.2-.3.3z"/><path d="m136.4 117.9c2-2.3 4-4.7 5.9-7 .1.1.2.2.3.3-2 2.3-4 4.6-6 7-.1-.2-.2-.3-.2-.3z"/><path d="m102.3 158.1c1.6-.7 3.3-1 5.1-.9.4 0 .8.3 1.1.9-2 .1-4.1.3-6.1.4 0 0 0-.2-.1-.4z"/><path d="m158 79c2.5 2.6 3 4.8 1.4 7.4.7-2.7-.2-5-1.7-7.1.1-.1.2-.2.3-.3z"/><path d="m109.4 154.2c-2.4.2-4.7.5-7.1.7 2.2-1.8 4.7-.7 7-1.5.1.2.1.5.1.8z"/><path d="m141.6 97.7c-1.7 1.3-3.3 2.7-5 4-.1-.1-.2-.2-.2-.3 1.7-1.3 3.3-2.7 5-4 0 .1.1.2.2.3z"/><path d="m119.9 109.9c1.8-1.5 3.8-2.4 6-3 .1.1.1.2.2.2-2 1-4 2-5.9 3-.1-.1-.2-.1-.3-.2z"/><path d="m107.2 159.5c-1.6.5-3 2-5 1.1 1.6-1.1 3.2-1.4 5-1.1z"/><path d="m105.9 156.2c-.9.9-2.1.6-3.5 1.1 1.8-1.9 1.9-2 3.5-1.1z"/><path d="m106.7 132.9c-.8.2-1.5.4-2.2.6.5-1.2.5-1.2 3.2-2-.5.6-.8 1-1 1.4z"/><path d="m151.8 68.1c1.1-1.1 2.5-1.5 3.8-2.1.1.2.2.4.3.6-1.3.6-2.6 1.2-3.9 1.9-.1-.3-.1-.4-.2-.4z"/><path d="m145.6 93.2c-.8 1-1.7 2-2.5 3-.1-.1-.2-.2-.2-.2.8-1 1.6-2 2.5-3 0 0 .1.1.2.2z"/><path d="m156.2 77.8c-1-.8-2-1.7-3-2.5.1-.1.2-.2.3-.3 1 .8 2 1.7 3 2.5-.1.1-.2.2-.3.3z"/><path d="m106.2 130.3c-.7 1.2-1.5 1.6-2.7 1.9.6-1.2 1.5-1.4 2.7-1.9z"/><path d="m134.3 120.8c.7-1 1.4-2 2-3 .1.1.2.2.3.2-.7 1-1.4 2-2 3-.1 0-.2-.1-.3-.2z"/><path d="m150.5 62.8c-1 .7-2 1.4-2.9 2-.1-.1-.2-.2-.2-.2 1-.7 2-1.3 3-2 0 .1 0 .1.1.2z"/><path d="m105 134.3c.6-.5 1.1-.9 1.7-1.4h-.1c.4-.1.9-.2 1.7-.3-1 1.2-2.1 1.4-3 1.9-.1-.1-.2-.2-.3-.2z"/><path d="m142.3 110.9c.7-.8 1.4-1.7 2-2.5.1.1.2.2.2.2-.7.8-1.3 1.7-2 2.5 0-.1-.1-.1-.2-.2z"/><path d="m94.7 123c.5-.1.9-.1 1.6-.2-.5 1.1-1.3 1.2-2.3 1.1.3-.4.5-.7.7-.9z"/><path d="m146.6 106.1c-.7.8-1.3 1.7-2 2.5-.1-.1-.2-.2-.2-.2.7-.8 1.3-1.7 2-2.5 0 .1.1.2.2.2z"/><path d="m104.6 140.8c.2-1 .9-1.5 1.7-1.8-.2 1-1 1.4-1.7 1.8z"/><path d="m120.2 110.1c-.7.7-1.3 1.3-2 2-.1-.1-.2-.2-.3-.2.3-1.1 1.1-1.6 2-2 .1.1.2.1.3.2z"/><path d="m68.7 132.7 1.8-1.8c.1 1.2-.7 1.7-1.4 2.2-.2-.1-.3-.2-.4-.4z"/><path d="m106.3 137.5c-.6.6-1.2 1.2-1.8 1.8-.1-.1-.2-.2-.3-.3.3-.6.7-1.1 1-1.7h-.1c.3-.1.6-.1.9-.2.1.2.2.3.3.4z"/><path d="m158.7 89c.4-.6.8-1.2 1.2-1.8.2.1.3.3.5.4-.5.6-.9 1.2-1.4 1.7-.1-.2-.2-.3-.3-.3z"/><path d="m105.2 137.4c-.6 0-1-.2-.6-.8.2-.3.6-.5.9-.8.1.1.2.2.3.3-.3.4-.5.9-.6 1.3z"/><path d="m141.3 97.4 1.5-1.5c.1.1.1.2.2.2-.5.5-1 1-1.5 1.5 0 0-.1-.1-.2-.2z"/><path d="m95.2 122c-.2.3-.4.7-.6 1h.1c-.3 0-.6-.1-.9-.1.1-1.1.8-1 1.4-.9z"/><path d="m107.3 135c-.5.3-1 .7-1.5 1-.1-.1-.2-.2-.3-.3.5-.3 1-.7 1.5-1 .1.1.2.2.3.3z"/><path d="m118.2 112.1c-.2.4-.5.8-.8 1.3-.1-.1-.2-.2-.4-.2.3-.4.6-.8.8-1.3.2.1.3.1.4.2z"/><path d="m145.3 93c.3-.5.7-1 1-1.5.1.1.2.2.3.3-.3.5-.7 1-1 1.5-.1-.2-.2-.3-.3-.3z"/><path d="m117.2 47.1c.3.5.7 1 1 1.5-.1.1-.2.2-.3.2-.3-.5-.7-1-1-1.5.1 0 .2-.1.3-.2z"/><path d="m145.3 67.1c.4-.5.7-1 1-1.5l.2.2c-.3.5-.7 1-1 1.5 0-.1-.1-.1-.2-.2z"/><path d="m105.3 134.5c-.2.3-.5.5-.7.8-.1-.1-.2-.2-.3-.2.2-.3.4-.5.7-.8.1 0 .2.1.3.2z"/><path d="m106 137.2c.2-.1.4-.3.7-.4.1.1.1.2.2.3-.2.1-.4.3-.6.4-.1-.1-.2-.2-.3-.3z"/><path d="m85.7 115.4c0-.1-.1-.2-.1-.3.1-.1.2-.2.3-.2l.5.5c-.1.1-.2.2-.3.3-.1 0-.2 0-.3-.1 0-.1-.1-.1-.1-.2z"/><path d="m95.2 121.9c.1-.1.2-.1.2-.2 0 .1-.1.2-.2.2z"/><path d="m157.7 79.3c-.2-.2-.3-.3-.5-.5.1-.1.2-.2.3-.3.2.2.3.3.5.5-.1.1-.2.2-.3.3z"/><path d="m157 78c.2.2.3.3.5.5-.1.1-.2.2-.3.3-.2-.2-.3-.3-.5-.5.1-.1.2-.2.3-.3z"/><path d="m107 134.7c.2-.1.3-.1.5-.2-.1.2-.2.3-.2.5-.1-.1-.2-.2-.3-.3z"/><path d="m156.7 78.3c-.2-.2-.3-.3-.5-.5.1-.1.2-.2.3-.3.2.2.3.3.5.5-.1.1-.2.2-.3.3z"/><path d="m147.5 64.8c-.2.2-.3.3-.5.5-.1-.1-.2-.2-.2-.2.2-.2.3-.3.5-.5.1.1.2.2.2.2z"/><path d="m147.1 65.3c-.2.2-.3.3-.5.5-.1-.1-.1-.1-.2-.2.2-.2.3-.3.5-.5 0 .1.1.1.2.2z"/><path d="m105 64.8c-2-2-2.9-4.4-3.4-7.7 1.4 2.8 2.5 5.1 3.7 7.5-.1 0-.2.1-.3.2z"/><path d="m93.3 80c2.1 1.1 4.3 1.1 6.6 1.3-2.4.4-4.8.9-6.8-1.1.1 0 .1-.1.2-.2z"/><path d="m82.2 47.8c.1-.6.2-1.3.4-2.4.7 1.3.2 1.9-.4 2.4z"/><path d="m102 71.3c-.7-1.2-.7-1.2-.4-2.4.2.8.4 1.5.7 2.3-.1 0-.2 0-.3.1z"/><path d="m102.2 71.1c.2.3.4.6.6.9-.1.1-.2.2-.3.2-.2-.3-.3-.7-.5-1 .1 0 .2 0 .2-.1z"/><path d="m116.9 54.1c.2-.1.3-.1.5-.2-.1.2-.1.3-.2.5-.1-.1-.2-.2-.3-.3z"/><path d="m93.1 80.2c-.1-.2-.2-.3-.2-.5.2.1.3.2.5.2-.2.2-.2.3-.3.3z"/><path d="m87.4 92.9c-.2-.2-.3-.3-.4-.5.1-.1.1-.2.2-.3 1-.8 2.1-.2 3.1 0 1.3.2 2.4 1.1 3.8.8-1.4.9-4.9 1.2-7.8.6.5-.3.8-.5 1.1-.6z"/><path d="m99.2 108c-.3.5-.7 1-1 1.5-.3.2-.7.4-1 .5h.1c-.9.3-1.8.6-2.9.9.8-1 2.5-2 4.8-2.9z"/><path d="m96.2 114c-.3.2-.7.3-1 .5-.3 0-.6-.1-1-.1 1.1-1 2-2 3-2.9l-.1.1c.2-.2.4-.4.5-.5h-.1 1c-.6.9-1.5 1.9-2.3 2.9z"/><path d="m95.1 98.7c-.4-1.9-1-3.9.4-6.1-.1 2.3-.3 4.2-.4 6.1z"/><path d="m99.2 110c-.2.2-.3.3-.5.5-.3.2-.7.3-1 .5h.1c-.2.2-.4.4-.5.5l.1-.1c-.7.2-1.3.4-2 .6-.1-.1-.1-.2-.1-.2.7-.6 1.4-1.2 2.2-1.8h-.1c.3-.2.7-.4 1-.5.1.2.4.4.8.5z"/><path d="m112.2 96.2c-.7.6-1.4 1.3-2.1 1.9 0-1.3.8-1.8 1.8-2.2.2.1.2.2.3.3z"/><path d="m113.6 93.6c-.2.3-.3.7-.5 1-.1-.2-.3-.4-.4-.6.3-.1.6-.3.9-.4z"/><path d="m115.9 70c.2-.1.3-.1.5-.2-.1.2-.1.3-.2.5-.1-.1-.2-.2-.3-.3z"/><path d="m97.7 33.8v1.4c-.6-.3-1-.5-2-1 1-.2 1.5-.3 2-.4z"/><path d="m98.2 33.8c.2.2.3.5.5.7-.1 0-.2.1-.4.2 0-.3-.1-.6-.1-.9z"/><path d="m80.9 72.3c-.7-.7-1.1-1.1-1.7-1.7 0-.2 1.7-.2 3.2.6-.7.4-1.2.8-1.5 1.1z"/><path d="m82.8 75.6c.1.1.2.1.4.2-.1.1-.1.1-.2.2-.1-.1-.2-.2-.2-.4z"/><path d="m110.6 115c-.1-.3-.4-.7-.3-.8.6-.6 1.3-1.1 2.2-1.2-.7.6-1.3 1.3-1.9 2z"/><path d="m106.8 112.2c-.7.7-1.1 1.5-2.4 1.4.7-.6 1.4-1.1 2.2-1.7 0 .1.1.2.2.3z"/><path d="m106.5 111.9 2-2 .3.3c-.7.7-1.3 1.3-2 2-.1-.1-.2-.2-.3-.3z"/><path d="m113.6 102.5c0-.2 0-.3 0-.5.3-.1.5-.2.8-.3.1.1.1.2.2.3-.4.2-.7.4-1 .5z"/><path d="m109.3 109.7c-.2.2-.3.3-.5.5-.1-.1-.2-.2-.3-.3l.5-.5c.1.1.2.2.3.3z"/><path d="m86.4 115.3c.8.4 1.5.9 2.6 1.5-1.6-.1-1.6-.1-2.8-1.2 0-.1.1-.2.2-.3z"/><path d="m111.6 76.2c-.2.2-.3.3-.5.5-.7.2-1.3.3-2 .5.8-1.5 2.4-1.7 4-3-.3.9-.4 1.2-.5 1.5-.3.1-.7.3-1 .5z"/><path d="m111.6 62.7c.3-.7.7-1.3 1-2 1.1.4 1.1 1.2 1 2.3-.7-.1-1.4-.2-2-.3z"/><path d="m111.1 77.1c-.2.2-.4.4-.5.5.2-.1.3-.3.5-.5z"/><path d="m105.7 102.5c-.2 0-.4 0-.6 0z"/></svg>