<svg enable-background="new 0 0 209 198" viewBox="0 0 209 198" xmlns="http://www.w3.org/2000/svg"><path d="m103.4 32c1 .4 1.7 1.1 2.5 1.8 4.1 4.2 8.3 8.3 12.4 12.5.8.8 1.4 1.6 1.1 2.8-.2 1.1-1.3 2-2.7 2s-2.8 0-4.3 0c-.7 0-1.1.2-1 1v1 105.8c0 1.6 0 1.6-1.6 1.6-4.8 0-9.6 0-14.4 0-1.2 0-1.5-.3-1.5-1.5.1-14.6 0-29.2 0-43.9 0-20.7 0-41.5 0-62.2 0-2.1.3-1.8-1.9-1.8-1.1 0-2.2 0-3.3 0-1.2 0-2.2-.5-2.7-1.7-.5-1.1 0-2.1.8-2.8 4.5-4.5 9.1-9.1 13.6-13.6.5-.5 1.1-.6 1.6-1 .4 0 .9 0 1.4 0z"/><path d="m38.2 63.5c.9-1.8 2.3-2.4 4.3-2.3 6 .1 12 0 18 0 1.3 0 2.3.2 2.9 1.5.5 1.3-.1 2.3-1 3.1-.8.8-1.6 1.7-2.5 2.5-.9.7-.9 1.2 0 2.1 4.6 4.5 9.1 9.1 13.6 13.6 2.8 2.8 5.6 5.7 8.4 8.4 2.1 2.1 3.1 4.5 3.1 7.4v59.3c0 1.2-.3 1.4-1.5 1.4-4.9-.1-9.8-.1-14.7 0-1.3 0-1.5-.4-1.5-1.6 0-17.7 0-35.4.1-53.2 0-2.1-.7-3.8-2.2-5.3-6-5.9-12-11.9-18-17.9-.7-.7-1.1-.8-1.7 0-.7.9-1.6 1.6-2.4 2.4-2 2-3.4 1.9-5-.4.1-7 .1-14 .1-21z"/><path d="m120.2 141.7c0-5.6 0-11.2 0-16.8 0-2.9 1-5.3 3-7.3 7.4-7.3 14.8-14.8 22.1-22.1.8-.8.9-1.2 0-2-1-.8-1.9-1.8-2.8-2.7-.8-.8-1.2-1.8-.7-3s1.4-1.5 2.6-1.5h19.2c1.9 0 3.3 1.4 3.3 3.3v19.2c0 1.2-.5 2.1-1.5 2.5-1.1.5-2.1.2-2.9-.6-1-1-2.1-2-3-3-.6-.6-.9-.7-1.5 0-2.7 3.2-5.5 6.3-8.3 9.4-3.4 3.8-6.7 7.7-10.1 11.5-1.2 1.4-1.8 2.9-1.8 4.8v25.8c0 1.1-.3 1.4-1.4 1.4-5-.1-10-.1-14.9 0-1.2 0-1.4-.3-1.4-1.4.1-5.8.1-11.7.1-17.5z"/></svg>