<svg enable-background="new 0 0 217 198" viewBox="0 0 217 198" xmlns="http://www.w3.org/2000/svg"><path d="m171 99c-1.3 3.5-2.3 7-3.8 10.4-9 20.1-23.9 34.1-45.1 40.3-28.5 8.3-53.6 1.6-74.6-19.5-8-8.1-13.5-17.9-16.7-28.9-.1-.4-.2-.8-.4-1.5 2.4 1.2 4.6 2.4 6.8 3.4 12.6 5.8 25.9 9.5 39.7 11.3 11.8 1.5 23.6 1.6 35.5.4 18-1.9 35.4-6.5 52.1-13.5 2.1-.9 4.3-1.8 6.5-2.6zm-22.9 18.1c-31.7 10-63.2 12.3-95.1.6.9 1.8 1.5 3.3 2.4 4.7 5.4 8.9 13.5 14.4 23 18 11.1 4.1 22.5 4.9 34.2 2.8 10.1-1.9 19.1-5.8 26.7-12.8 4-3.7 7-8 8.8-13.3z"/><path d="m69.8 62c-2.8-2.7-5.4-5.4-8.1-8-1.2-1.2-2-2.6-1.8-4.4.2-2 1.3-3.5 3.2-4.3s3.7-.4 5.2.9c.1.1.3.2.4.4 5.1 5 10.1 10 15.1 15.1 3.5 3.6 4.1 8.2 1.8 12.3-2.8 5-9.5 6.5-14.3 3.3s-5.9-9.9-2.4-14.4c.3-.2.5-.5.9-.9z"/><path d="m132.8 61.8c1.7 2 2.6 3.9 2.9 6.2.5 4.5-2.3 9.1-6.6 10.5-4.6 1.5-9.6-.2-11.9-4.3-2.3-3.9-2-8.5 1.1-11.8 4.5-4.8 9.3-9.4 13.9-14 .6-.6 1.1-1.2 1.8-1.7 2.3-2.2 5.4-2.3 7.5-.2 2 2 1.9 5.1-.3 7.4-2.3 2.4-4.7 4.7-7.1 7.1-.4.2-.9.5-1.3.8z"/></svg>